<?xml version="1.0" encoding="utf-8"?>
<!-- Generator: Adobe Illustrator 24.1.0, SVG Export Plug-In . SVG Version: 6.00 Build 0)  -->
<svg version="1.1" id="Ebene_1" xmlns="http://www.w3.org/2000/svg" xmlns:xlink="http://www.w3.org/1999/xlink" x="0px" y="0px"
	 width="580.9px" height="117.5px" viewBox="0 0 580.9 117.5" style="enable-background:new 0 0 580.9 117.5;" xml:space="preserve"
	>
<style type="text/css">
	.st0{fill:#003A5D;}
	.st1{fill:#6EA1CF;}
	.st2{fill:#006EAD;}
	.st3{fill:#AFCA0B;}
</style>
<path d="M182.4,101l10.6-9.7l1.4,1.4l-9.3,8.2l9.3,8.1l-1.4,1.5L182.4,101z"/>
<path d="M197.9,92.7h1.7l4,15.3h0.4l4.6-15h1.7l4.6,15h0.5l3.9-15.3h1.7l-4.4,16.8h-3l-4.3-14.4l-4.3,14.4h-3L197.9,92.7z"/>
<path d="M225.6,107.8c-1-1.3-1.5-3.4-1.5-6.3c0-3.1,0.6-5.4,1.7-6.9s2.9-2.2,5.2-2.2c1.8-0.1,3.6,0.6,4.9,1.9c1,1.3,1.6,3.3,1.6,6
	v1.4h-11.7c-0.1,1.3,0.1,2.6,0.5,3.8c0.3,0.9,0.9,1.6,1.7,2.1c1.1,0.5,2.2,0.7,3.4,0.7c0.6,0,1.3,0,2.1,0s1.6-0.1,2.3-0.2l1-0.1
	l0.1,1.4c-2.3,0.2-4.3,0.4-5.9,0.4C228.4,109.8,226.6,109.1,225.6,107.8z M235.7,100.3c0-2.3-0.4-4-1.1-5c-0.9-1.1-2.2-1.6-3.6-1.5
	c-1.5-0.1-2.9,0.5-3.9,1.6c-1,1.5-1.5,3.2-1.3,5L235.7,100.3z"/>
<path d="M251,108.9c-1-0.6-1.7-1.6-2-2.8c-0.4-1.7-0.7-3.4-0.6-5.1c0-1.4,0.1-2.8,0.4-4.2c0.2-1.2,0.9-2.3,1.8-3.2
	c1.2-1,2.7-1.5,4.2-1.3c0.7,0,1.4,0,2,0.1s1.6,0.2,2.8,0.4l-0.1,1.4c-1.4-0.2-2.7-0.3-4.1-0.3c-1.1-0.1-2.2,0.2-3.2,0.7
	c-0.8,0.5-1.4,1.3-1.6,2.2c-0.4,1.5-0.5,3-0.5,4.4s0.1,2.8,0.5,4.2c0.2,0.9,0.8,1.7,1.6,2.2c1,0.5,2.2,0.8,3.3,0.7l4-0.3l0.1,1.4
	c-1.5,0.2-3,0.3-4.5,0.4C253.7,109.8,252.3,109.5,251,108.9z"/>
<path d="M265.6,108.9c-1-0.6-1.8-1.5-2.1-2.7c-0.5-1.7-0.7-3.4-0.6-5.1c-0.1-1.8,0.2-3.6,0.6-5.3c0.3-1.1,1.1-2.1,2.1-2.7
	c2.7-1.1,5.7-1.1,8.4,0c1,0.6,1.8,1.6,2.1,2.8c0.5,1.7,0.7,3.5,0.6,5.2c0.1,1.7-0.1,3.4-0.6,5.1c-0.3,1.1-1.1,2.1-2.1,2.7
	C271.4,110,268.3,110,265.6,108.9L265.6,108.9z M273.2,107.6c0.8-0.5,1.3-1.3,1.5-2.1c0.3-1.4,0.4-2.8,0.4-4.2c0-1.5-0.1-3-0.4-4.5
	c-0.2-0.9-0.7-1.7-1.5-2.2c-1-0.5-2.1-0.7-3.2-0.7c-1.1-0.1-2.3,0.2-3.3,0.7c-0.8,0.5-1.4,1.3-1.6,2.2c-0.3,1.5-0.5,3-0.4,4.5
	c0,1.4,0.1,2.8,0.4,4.2c0.2,0.9,0.8,1.7,1.5,2.2c1,0.5,2.2,0.7,3.3,0.7C271,108.3,272.1,108.1,273.2,107.6z"/>
<path d="M281.9,107.7c-0.9-1.3-1.4-3.4-1.4-6.3c-0.1-1.8,0.2-3.5,0.7-5.2c0.4-1.2,1.2-2.2,2.3-2.9c1.3-0.7,2.8-1,4.3-0.9
	c1.4,0,2.8,0.1,4.1,0.4v-7.7h1.6v24.4h-1.7v-1.3c-1.7,1.1-3.6,1.7-5.6,1.7C284.5,109.9,282.9,109.1,281.9,107.7z M289.1,107.9
	c0.7-0.2,1.4-0.5,2.1-0.8l0.8-0.4V94.2c-1.4-0.3-2.8-0.4-4.2-0.4c-1.2-0.1-2.3,0.2-3.3,0.8c-0.8,0.6-1.4,1.4-1.7,2.3
	c-0.4,1.4-0.5,2.8-0.5,4.2c-0.1,1.8,0.2,3.7,1,5.3c0.7,1.2,1.9,1.9,3.3,1.8C287.4,108.3,288.3,108.1,289.1,107.9L289.1,107.9z"/>
<path d="M299.5,107.8c-1-1.3-1.5-3.4-1.5-6.3c0-3.1,0.6-5.4,1.7-6.9s2.9-2.2,5.2-2.2c1.8-0.1,3.6,0.6,4.9,1.9c1.1,1.3,1.6,3.3,1.6,6
	v1.4h-11.7c-0.1,1.3,0.1,2.6,0.5,3.8c0.3,0.9,0.9,1.6,1.7,2.1c1.1,0.5,2.2,0.7,3.4,0.7c0.6,0,1.3,0,2.1,0s1.6-0.1,2.3-0.2l1-0.1
	l0.1,1.4c-2.3,0.2-4.3,0.4-6,0.4C302.3,109.8,300.5,109.1,299.5,107.8z M309.7,100.3c0-2.3-0.4-4-1.1-5c-0.9-1.1-2.2-1.6-3.6-1.5
	c-1.5-0.1-2.9,0.5-3.9,1.6c-1,1.5-1.5,3.2-1.3,5L309.7,100.3z"/>
<path d="M328.6,109.5h-2.2l-5-16.8h1.7l4.7,15.3h1.2l4.7-15.3h1.7l-7.5,24.4h-1.7L328.6,109.5z"/>
<path d="M341,108.9c-1-0.6-1.8-1.5-2.1-2.7c-0.5-1.6-0.7-3.4-0.6-5.1c-0.1-1.8,0.2-3.6,0.6-5.3c0.3-1.1,1.1-2.1,2.1-2.7
	c2.7-1.1,5.7-1.1,8.4,0c1,0.6,1.8,1.6,2.1,2.8c0.5,1.7,0.7,3.5,0.6,5.2c0.1,1.7-0.1,3.4-0.6,5.1c-0.3,1.1-1.1,2.1-2.1,2.7
	c-1.3,0.6-2.8,0.9-4.3,0.8C343.8,109.8,342.3,109.5,341,108.9z M348.6,107.6c0.8-0.5,1.3-1.3,1.5-2.1c0.3-1.4,0.5-2.8,0.4-4.2
	c0-1.5-0.1-3-0.4-4.5c-0.2-0.9-0.7-1.7-1.5-2.2c-1-0.5-2.1-0.7-3.2-0.7c-1.1-0.1-2.3,0.2-3.3,0.7c-0.8,0.5-1.4,1.3-1.6,2.2
	c-0.3,1.5-0.5,3-0.4,4.5c0,1.4,0.1,2.8,0.4,4.2c0.2,0.9,0.7,1.7,1.5,2.2c1,0.5,2.2,0.7,3.4,0.7C346.4,108.3,347.6,108.1,348.6,107.6
	L348.6,107.6z"/>
<path d="M358.5,109c-0.8-0.6-1.4-1.5-1.6-2.5c-0.3-1.7-0.5-3.4-0.5-5.1v-8.8h1.7v8.7c0,1.4,0.1,2.9,0.3,4.3c0.1,0.8,0.5,1.5,1.1,2.1
	c0.7,0.5,1.6,0.7,2.4,0.6c1.9,0,3.8-0.5,5.4-1.5V92.7h1.6v16.8h-1.7v-1.3c-0.8,0.5-1.7,0.9-2.6,1.2c-1,0.3-1.9,0.4-2.9,0.4
	C360.6,109.8,359.5,109.6,358.5,109z"/>
<path d="M374.1,92.7h1.6v2.5c1.9-1.4,4.1-2.4,6.5-2.8V94c-1,0.2-2.1,0.5-3.1,0.9c-0.9,0.3-1.7,0.7-2.5,1.2l-0.9,0.5v12.8H374
	L374.1,92.7z"/>
<path d="M393.4,107.7c-0.9-1.3-1.3-3.4-1.4-6.3c-0.1-1.8,0.2-3.5,0.7-5.2c0.4-1.2,1.2-2.2,2.3-2.9c1.3-0.7,2.8-1,4.3-0.9
	c1.4,0,2.8,0.1,4.1,0.4v-7.7h1.6v24.4h-1.6v-1.3c-1.7,1.1-3.6,1.7-5.6,1.7C396.1,109.9,394.4,109.1,393.4,107.7z M400.6,107.9
	c0.7-0.2,1.4-0.5,2.1-0.8l0.8-0.4V94.2c-1.4-0.3-2.8-0.4-4.2-0.4c-1.2-0.1-2.3,0.2-3.3,0.8c-0.8,0.6-1.4,1.4-1.7,2.3
	c-0.4,1.4-0.5,2.8-0.5,4.2c-0.1,1.8,0.2,3.7,1,5.3c0.7,1.2,1.9,1.9,3.3,1.8C399,108.3,399.8,108.1,400.6,107.9z"/>
<path d="M410.2,85.9h1.6v2.2h-1.6V85.9z M410.2,92.7h1.6v16.8h-1.6V92.7z"/>
<path d="M418.9,116.9c-0.8-0.3-1.6-0.8-2-1.6c-0.4-0.9-0.6-1.9-0.6-2.9c0-0.6,0.1-1.2,0.3-1.8c0.2-0.4,0.4-0.8,0.8-1.2
	c0.6-0.5,1.1-1,1.8-1.4c-0.3-0.2-0.5-0.5-0.6-0.9s-0.2-0.8-0.2-1.3c0-0.3,0.1-0.6,0.2-0.9s0.4-0.9,0.9-1.8c-1.9-0.7-2.8-2.3-2.8-5.1
	c-0.1-1.6,0.4-3.1,1.4-4.3c1.3-1,2.9-1.5,4.6-1.4c1.2,0,2.3,0.2,3.4,0.4l4.8-0.1v1.6h-3.5c0.8,0.7,1.2,2,1.2,3.9s-0.5,3.4-1.5,4.2
	s-2.5,1.3-4.7,1.3c-0.6,0-1.2,0-1.8-0.1c-0.1,0.1-0.1,0.2-0.1,0.3c0,0.1-0.1,0.2-0.1,0.3c-0.1,0.3-0.2,0.6-0.3,0.9
	c-0.1,0.2-0.1,0.5-0.1,0.8c-0.1,0.5,0.2,1.1,0.7,1.3c0.7,0.2,1.5,0.3,2.2,0.3h1.6c1.1,0,2.2,0.1,3.3,0.3c0.8,0.2,1.5,0.7,2,1.4
	c0.5,0.9,0.8,2,0.7,3c0.1,1.6-0.5,3.1-1.7,4.2c-1.1,0.9-3.1,1.3-5.8,1.3C421.5,117.5,420.2,117.3,418.9,116.9z M426.4,115.6
	c0.7-0.2,1.3-0.6,1.7-1.3c0.4-0.7,0.6-1.6,0.5-2.4c0-0.7-0.1-1.3-0.4-1.9c-0.3-0.5-0.8-0.8-1.3-0.9c-0.9-0.2-1.9-0.3-2.9-0.3
	l-3.9-0.1c-0.7,0.4-1.3,1-1.8,1.6c-0.3,0.6-0.5,1.3-0.4,1.9c0,0.8,0.1,1.6,0.5,2.2s0.9,1,1.6,1.2c1,0.3,2.1,0.4,3.1,0.3
	C424.2,116,425.3,115.9,426.4,115.6L426.4,115.6z M425.9,101.2c1.3-2,1.3-4.6,0-6.6c-0.9-0.7-2.1-1.1-3.3-0.9
	c-1.2-0.1-2.4,0.2-3.4,1c-1.3,2-1.3,4.6,0,6.5c1,0.7,2.2,1.1,3.4,0.9C423.7,102.3,424.9,101.9,425.9,101.2z"/>
<path d="M433.9,85.9h1.6v2.2h-1.6V85.9z M433.9,92.7h1.6v16.8h-1.6V92.7z"/>
<path d="M443.4,109.3c-0.7-0.4-1.1-1.1-1.3-1.8c-0.3-1.2-0.5-2.4-0.4-3.7v-9.6h-2.5v-1.5h2.5v-5.4h1.6v5.3h5.9v1.5h-5.9v8.5
	c0,1.2,0,2.3,0.2,3.4c0.1,0.6,0.3,1.2,0.8,1.7c0.5,0.4,1.2,0.6,1.9,0.6l3.2-0.3l0.1,1.4c-1.2,0.2-2.4,0.3-3.6,0.3
	C445,109.9,444.2,109.7,443.4,109.3z"/>
<path d="M452.4,108.5c-0.8-1-1.2-2.3-1.2-3.6c-0.1-1.3,0.3-2.5,1.1-3.5c1-0.9,2.3-1.4,3.7-1.5l6-0.6v-1.6c0.1-1-0.2-2-0.8-2.9
	c-0.6-0.6-1.4-1-2.3-0.9c-1,0-1.9,0-2.8,0.1s-2.2,0.2-4,0.4L452,93c2.1-0.4,4.3-0.6,6.5-0.6c1.4-0.1,2.8,0.3,3.9,1.3
	c0.9,1.1,1.4,2.6,1.2,4v9.3c0,0.4,0.3,0.7,0.6,0.9c0.5,0.3,1.1,0.5,1.7,0.5l-0.1,1.4c-0.7,0-1.5-0.1-2.2-0.4c-0.6-0.2-1.1-0.5-1.5-1
	c-2,0.9-4.3,1.4-6.5,1.4C454.5,109.9,453.3,109.4,452.4,108.5z M461.1,107.4l0.9-0.3v-6.4l-5.8,0.6c-0.9,0-1.8,0.4-2.5,1
	c-0.6,0.7-0.8,1.6-0.8,2.5c0,2.4,1,3.6,2.9,3.6C457.7,108.3,459.5,108,461.1,107.4z"/>
<path d="M469.2,85.1h1.7v24.4h-1.7V85.1z"/>
<path d="M484.2,94.2H482v-1.5h2.2v-1.8c0-1.2,0.1-2.5,0.4-3.7c0.2-0.8,0.7-1.4,1.4-1.8c0.8-0.4,1.7-0.6,2.6-0.5l3.2,0.2v1.3H489
	h-0.6c-0.8-0.1-1.6,0.4-2,1.1c-0.4,1.1-0.6,2.3-0.5,3.5v1.8h5.2v1.4h-5.2v15.3h-1.6L484.2,94.2L484.2,94.2z"/>
<path d="M496.2,109c-0.8-0.6-1.4-1.5-1.6-2.5c-0.3-1.7-0.5-3.4-0.5-5.1v-8.8h1.7v8.7c0,1.4,0.1,2.9,0.3,4.3c0.1,0.8,0.5,1.5,1.1,2.1
	c0.7,0.5,1.6,0.7,2.4,0.6c1.9,0,3.8-0.5,5.4-1.5V92.7h1.6v16.8H505v-1.3c-0.8,0.5-1.7,0.9-2.6,1.2c-1,0.3-1.9,0.4-2.9,0.4
	C498.3,109.8,497.2,109.6,496.2,109z"/>
<path d="M514.5,109.3c-0.7-0.4-1.1-1.1-1.3-1.8c-0.3-1.2-0.5-2.4-0.4-3.7v-9.6h-2.5v-1.5h2.5v-5.4h1.6v5.3h5.9v1.5h-5.9v8.5
	c0,1.2,0,2.3,0.2,3.4c0.1,0.6,0.3,1.2,0.8,1.7c0.5,0.4,1.2,0.6,1.9,0.6l3.2-0.3l0.1,1.4c-1.2,0.2-2.4,0.3-3.6,0.3
	C516.1,109.9,515.3,109.7,514.5,109.3z"/>
<path d="M525.3,109c-0.8-0.6-1.4-1.5-1.6-2.5c-0.3-1.7-0.5-3.4-0.5-5.1v-8.8h1.6v8.7c0,1.4,0.1,2.9,0.3,4.3c0.1,0.8,0.5,1.5,1.1,2.1
	c0.7,0.5,1.6,0.7,2.4,0.6c1.9,0,3.8-0.5,5.4-1.5V92.7h1.6v16.8h-1.7v-1.3c-0.8,0.5-1.7,0.9-2.6,1.2c-1,0.3-1.9,0.4-2.9,0.4
	C527.4,109.8,526.3,109.6,525.3,109z"/>
<path d="M540.9,92.7h1.6v2.5c1.9-1.4,4.1-2.4,6.5-2.8V94c-1.1,0.2-2.1,0.5-3.1,0.9c-0.9,0.3-1.7,0.7-2.5,1.2l-0.9,0.5v12.8h-1.7
	V92.7H540.9z"/>
<path d="M553,107.8c-1-1.3-1.5-3.4-1.5-6.3c0-3.1,0.6-5.4,1.7-6.9c1.3-1.6,3.2-2.4,5.2-2.2c1.8-0.2,3.6,0.6,4.9,1.9
	c1.1,1.3,1.6,3.3,1.6,6v1.4h-11.6c-0.1,1.3,0.1,2.6,0.5,3.8c0.3,0.9,0.9,1.6,1.7,2.1c1.1,0.5,2.2,0.7,3.4,0.7c0.6,0,1.3,0,2.1,0
	s1.6-0.1,2.3-0.2l1-0.1l0.1,1.4c-2.3,0.2-4.3,0.4-5.9,0.4C555.8,109.8,554,109.1,553,107.8z M563.1,100.3c0-2.3-0.4-4-1.1-5
	c-0.9-1.1-2.2-1.6-3.6-1.5c-1.5-0.1-2.9,0.5-3.9,1.6c-1,1.5-1.5,3.2-1.3,5L563.1,100.3z"/>
<path d="M568.9,109l9.3-8.1l-9.3-8.2l1.4-1.4l10.6,9.7l-10.7,9.5L568.9,109z"/>
<polygon class="st0" points="106.7,0 59.1,0 82.9,41.5 "/>
<polygon class="st1" points="0,0 38.5,67.3 53.4,41.5 29.7,0 "/>
<polygon class="st2" points="29.5,0 68,67.3 82.9,41.5 59.2,0 "/>
<path class="st0" d="M112.8,0L112.8,0L74,67.3h38.8c18.6,0,33.6-15.1,33.7-33.7l0,0C146.4,15.1,131.4,0,112.8,0z"/>
<circle class="st3" cx="156.1" cy="8.7" r="8.7"/>
<path d="M183.3,25.8h8.8l5.1,34.3h0.9l7.4-34.3h9.8l7.5,34.3h0.9l5.1-34.3h8.9l-7.9,41.5H217l-6.5-31.5L204,67.3h-12.8L183.3,25.8z"
	/>
<path d="M246.9,65.8c-2.6-1.6-4.5-4-5.5-6.9c-1.2-3.9-1.8-8-1.7-12.1c-0.1-4.1,0.4-8.3,1.7-12.2c0.9-2.9,2.9-5.4,5.5-7.1
	c2.5-1.6,5.9-2.3,10.1-2.3s7.5,0.8,10.1,2.3c2.6,1.7,4.5,4.2,5.5,7.1c1.2,4,1.8,8.1,1.7,12.2c0.1,4-0.4,8.1-1.6,12
	c-0.9,2.9-2.8,5.4-5.4,7c-2.5,1.6-5.9,2.3-10.2,2.3S249.3,67.3,246.9,65.8z M262.1,59.3c1.4-1.1,2.3-2.7,2.6-4.4
	c0.6-2.7,0.8-5.4,0.8-8.2c0.1-2.8-0.2-5.6-0.8-8.3c-0.4-1.8-1.3-3.4-2.6-4.6c-3.1-2-7.1-2-10.2,0c-1.4,1.2-2.3,2.8-2.6,4.6
	c-0.6,2.7-0.9,5.5-0.8,8.3c-0.1,2.6,0.2,5.2,0.7,7.8c0.3,1.8,1.2,3.4,2.5,4.6c1.5,1.2,3.4,1.7,5.3,1.6
	C258.8,60.9,260.6,60.4,262.1,59.3z"/>
<path d="M280.7,25.8h16.1c9.8,0,14.6,4.6,14.6,13.7c0,5.4-2,9.4-6.1,12l5.9,15.9h-9.3l-4.8-13.9H289v13.9h-8.4L280.7,25.8
	L280.7,25.8z M296.9,46.2c1.7,0.1,3.3-0.6,4.4-1.8c1.1-1.4,1.6-3.1,1.5-4.8c0.1-1.7-0.5-3.5-1.6-4.8c-1.1-1.2-2.8-1.8-4.4-1.7h-7.7
	v13.2h7.8V46.2z"/>
<path d="M340.3,59.9v7.4h-23.6V25.8h8.4v34L340.3,59.9z"/>
<path d="M368.5,27.8c2.5,1.3,4.4,3.6,5.3,6.2c1.1,3.8,1.6,7.8,1.5,11.8c0.1,4.2-0.4,8.4-1.5,12.4c-0.8,2.9-2.7,5.3-5.3,6.8
	c-2.5,1.5-6.2,2.2-10.9,2.2h-14V25.8h14C362.4,25.8,366,26.5,368.5,27.8z M363.5,58.4c1.3-1.2,2.2-2.8,2.5-4.5
	c0.5-2.8,0.6-5.6,0.6-8.4c0.1-2.5-0.1-5-0.6-7.4c-0.3-1.5-1.2-2.9-2.5-3.7c-1.2-0.8-3.2-1.2-5.8-1.2h-5.5V60h5.5
	C360.3,60,362.3,59.5,363.5,58.4L363.5,58.4z"/>
<path d="M419.6,27.8c2.5,1.3,4.4,3.6,5.2,6.2c1,2.8,1.5,6.8,1.5,11.8c0.1,4.2-0.4,8.4-1.5,12.4c-0.8,2.9-2.7,5.3-5.3,6.8
	c-2.5,1.5-6.2,2.2-10.9,2.2h-14V25.8h14C413.5,25.8,417.1,26.5,419.6,27.8z M414.6,58.4c1.4-1.2,2.2-2.8,2.5-4.5
	c0.4-2.8,0.6-5.6,0.6-8.4c0.1-2.5-0.1-4.9-0.6-7.4c-0.3-1.5-1.2-2.9-2.5-3.7c-1.8-0.9-3.8-1.3-5.8-1.2h-5.5V60h5.5
	C411.4,60,413.4,59.5,414.6,58.4L414.6,58.4z"/>
<path d="M433.1,25.8h8.4v41.5h-8.4V25.8z"/>
<path d="M449.9,25.8H466c9.8,0,14.6,4.6,14.6,13.7c0,5.4-2,9.4-6.1,12l5.9,15.9h-9.2l-4.8-13.9h-8.1v13.9h-8.4V25.8z M466.2,46.2
	c1.7,0.1,3.3-0.6,4.4-1.8c1.1-1.4,1.6-3.1,1.5-4.8c0.1-1.7-0.5-3.5-1.6-4.8c-1.2-1.2-2.8-1.8-4.5-1.7h-7.7v13.2h7.9V46.2z"/>
<path d="M495.6,33.2v9.7h14.8v7.2h-14.8v10H514v7.3h-26.8V25.8H514v7.4H495.6z"/>
<path d="M524.5,65.7c-2.4-1.6-4.1-4.1-4.8-6.9c-1-4-1.4-8-1.3-12.1c0-5.5,0.5-9.8,1.4-12.9c0.7-2.7,2.4-5.1,4.8-6.6
	c2.2-1.4,5.4-2,9.4-2c4.2,0.1,8.3,0.6,12.4,1.7l-0.2,6.7c-3.2-0.5-6.5-0.8-9.8-0.9c-2-0.1-4,0.3-5.8,1.2c-1.4,0.9-2.4,2.4-2.7,4
	c-0.6,2.6-0.8,5.2-0.8,7.8V48c0,2.6,0.2,5.3,0.8,7.8c0.3,1.5,1.2,2.9,2.5,3.8c1.8,0.9,3.8,1.3,5.8,1.2c3.3-0.1,6.7-0.3,10-0.9
	l0.2,6.9c-3.8,0.9-7.7,1.3-11.7,1.4C530.3,68.1,526.9,67.3,524.5,65.7z"/>
<path d="M561.1,33.3H550v-7.4h30.5v7.4h-11v34h-8.4V33.3z"/>
</svg>
